<mxfile host="app.diagrams.net" modified="2024-04-08T08:26:13.441Z" agent="Mozilla/5.0 (Windows NT 10.0; Win64; x64) AppleWebKit/537.36 (KHTML, like Gecko) Chrome/123.0.0.0 Safari/537.36" version="24.2.2" etag="XG75x8LQ-IVatpMuFAUi" type="github">
  <diagram name="第 1 页" id="hJ7yOUJo5qe-cg5y7-lt">
    <mxGraphModel>
      <root>
        <mxCell id="0" />
        <mxCell id="1" parent="0" />
      </root>
    </mxGraphModel>
  </diagram>
</mxfile>
